<?xml version="1.0" encoding="UTF-8"?>
<svg width="100" height="100" viewBox="0 0 100 100" fill="none" xmlns="http://www.w3.org/2000/svg">
  <!-- Baseball Pattern -->
  <pattern id="baseball-pattern" x="0" y="0" width="50" height="50" patternUnits="userSpaceOnUse">
    <!-- Baseball Stitches -->
    <path d="M10 25C10 25 20 15 25 25C30 35 40 25 40 25" stroke="white" stroke-width="2" stroke-linecap="round"/>
    <path d="M25 10C25 10 15 20 25 25C35 30 25 40 25 40" stroke="white" stroke-width="2" stroke-linecap="round"/>
  </pattern>
  
  <!-- Background with Pattern -->
  <rect width="100" height="100" fill="url(#baseball-pattern)"/>
  
  <!-- Diamond Shapes -->
  <path d="M0 0L50 50L0 100" stroke="white" stroke-width="1" fill="none"/>
  <path d="M100 0L50 50L100 100" stroke="white" stroke-width="1" fill="none"/>
  <path d="M50 0L0 50L50 100" stroke="white" stroke-width="1" fill="none"/>
  <path d="M50 0L100 50L50 100" stroke="white" stroke-width="1" fill="none"/>
</svg> 